<svg fill="none" xmlns="http://www.w3.org/2000/svg" viewBox="0 0 512 512">
  <g clip-path="url(#prefix__clip0_9_19)">
    <mask id="prefix__a" style="mask-type:luminance" maskUnits="userSpaceOnUse" x="14" y="0" width="484" height="512">
      <path d="M14 0h484v512H14V0z" fill="#fff"/>
    </mask>
    <g mask="url(#prefix__a)">
      <mask id="prefix__b" style="mask-type:luminance" maskUnits="userSpaceOnUse" x="14" y="0" width="484" height="512">
        <path d="M14 0h484v512H14V0z" fill="#fff"/>
      </mask>
      <g mask="url(#prefix__b)">
        <path d="M496 86l-18 272L312 0l184 86zM380 438l-124 72-126-72 24-62h202l24 62zM256 136l64 160H190l66-160zM32 358L14 86 198 0 32 358z" fill="url(#prefix__paint0_linear_9_19)"/>
        <path d="M496 86l-18 272L312 0l184 86zM380 438l-124 72-126-72 24-62h202l24 62zM256 136l64 160H190l66-160zM32 358L14 86 198 0 32 358z" fill="url(#prefix__paint1_linear_9_19)"/>
      </g>
    </g>
  </g>
  <defs>
    <linearGradient id="prefix__paint0_linear_9_19" x1="120.4" y1="463.8" x2="504" y2="281.4" gradientUnits="userSpaceOnUse">
      <stop stop-color="#8a6f27"/>
      <stop offset=".2" stop-color="#b89742"/>
      <stop offset=".4" stop-color="#d4af37"/>
      <stop offset=".5" stop-color="#f3e5ab"/>
      <stop offset=".7" stop-color="#e6ca65"/>
      <stop offset="1" stop-color="#aa822c"/>
    </linearGradient>
    <linearGradient id="prefix__paint1_linear_9_19" x1="103" y1="61.4" x2="354" y2="348" gradientUnits="userSpaceOnUse">
      <stop stop-color="#fff1b0" stop-opacity="0.6"/>
      <stop offset="1" stop-color="#f3e5ab" stop-opacity="0"/>
    </linearGradient>
    <clipPath id="prefix__clip0_9_19">
      <path fill="#fff" transform="translate(14)" d="M0 0h484v512H0z"/>
    </clipPath>
  </defs>
</svg>
